<mxfile host="Electron" agent="Mozilla/5.0 (Windows NT 10.0; Win64; x64) AppleWebKit/537.36 (KHTML, like Gecko) draw.io/28.0.6 Chrome/138.0.7204.100 Electron/37.2.3 Safari/537.36" version="28.0.6">
  <diagram name="第 1 页" id="hd6iMZ_119r6rgtWcIAV">
    <mxGraphModel dx="781" dy="595" grid="1" gridSize="10" guides="1" tooltips="1" connect="1" arrows="1" fold="1" page="1" pageScale="1" pageWidth="827" pageHeight="1169" math="0" shadow="0">
      <root>
        <mxCell id="0" />
        <mxCell id="1" parent="0" />
        <mxCell id="27x1z8VLLuhbYRWkRL3_-3" value="" style="edgeStyle=orthogonalEdgeStyle;rounded=0;orthogonalLoop=1;jettySize=auto;html=1;" edge="1" parent="1" source="27x1z8VLLuhbYRWkRL3_-1" target="27x1z8VLLuhbYRWkRL3_-2">
          <mxGeometry relative="1" as="geometry" />
        </mxCell>
        <mxCell id="27x1z8VLLuhbYRWkRL3_-1" value="课程介绍" style="rounded=1;whiteSpace=wrap;html=1;" vertex="1" parent="1">
          <mxGeometry x="130" y="150" width="120" height="60" as="geometry" />
        </mxCell>
        <mxCell id="27x1z8VLLuhbYRWkRL3_-5" value="" style="edgeStyle=orthogonalEdgeStyle;rounded=0;orthogonalLoop=1;jettySize=auto;html=1;" edge="1" parent="1" source="27x1z8VLLuhbYRWkRL3_-2" target="27x1z8VLLuhbYRWkRL3_-4">
          <mxGeometry relative="1" as="geometry" />
        </mxCell>
        <mxCell id="27x1z8VLLuhbYRWkRL3_-2" value="机器人介绍" style="whiteSpace=wrap;html=1;rounded=1;" vertex="1" parent="1">
          <mxGeometry x="310" y="150" width="120" height="60" as="geometry" />
        </mxCell>
        <mxCell id="27x1z8VLLuhbYRWkRL3_-7" value="" style="edgeStyle=orthogonalEdgeStyle;rounded=0;orthogonalLoop=1;jettySize=auto;html=1;" edge="1" parent="1" source="27x1z8VLLuhbYRWkRL3_-4" target="27x1z8VLLuhbYRWkRL3_-6">
          <mxGeometry relative="1" as="geometry" />
        </mxCell>
        <mxCell id="27x1z8VLLuhbYRWkRL3_-4" value="启动机器人" style="whiteSpace=wrap;html=1;rounded=1;" vertex="1" parent="1">
          <mxGeometry x="510" y="150" width="120" height="60" as="geometry" />
        </mxCell>
        <mxCell id="27x1z8VLLuhbYRWkRL3_-9" value="" style="edgeStyle=orthogonalEdgeStyle;rounded=0;orthogonalLoop=1;jettySize=auto;html=1;" edge="1" parent="1" source="27x1z8VLLuhbYRWkRL3_-6" target="27x1z8VLLuhbYRWkRL3_-8">
          <mxGeometry relative="1" as="geometry" />
        </mxCell>
        <mxCell id="27x1z8VLLuhbYRWkRL3_-6" value="安装python与VSCode" style="whiteSpace=wrap;html=1;rounded=1;" vertex="1" parent="1">
          <mxGeometry x="510" y="290" width="120" height="60" as="geometry" />
        </mxCell>
        <mxCell id="27x1z8VLLuhbYRWkRL3_-11" value="" style="edgeStyle=orthogonalEdgeStyle;rounded=0;orthogonalLoop=1;jettySize=auto;html=1;" edge="1" parent="1" source="27x1z8VLLuhbYRWkRL3_-8" target="27x1z8VLLuhbYRWkRL3_-10">
          <mxGeometry relative="1" as="geometry" />
        </mxCell>
        <mxCell id="27x1z8VLLuhbYRWkRL3_-8" value="机器人python控制" style="whiteSpace=wrap;html=1;rounded=1;" vertex="1" parent="1">
          <mxGeometry x="320" y="290" width="120" height="60" as="geometry" />
        </mxCell>
        <mxCell id="27x1z8VLLuhbYRWkRL3_-10" value="opencv与机器人" style="whiteSpace=wrap;html=1;rounded=1;" vertex="1" parent="1">
          <mxGeometry x="130" y="290" width="120" height="60" as="geometry" />
        </mxCell>
      </root>
    </mxGraphModel>
  </diagram>
</mxfile>
